<svg xmlns="http://www.w3.org/2000/svg" viewBox="0 0 800 500" role="img" aria-labelledby="title desc">
  <title id="title">CONAGUA agua</title>
  <desc id="desc">Ilustracion de agua en movimiento para servicios hidricos</desc>
  <defs>
    <linearGradient id="bg" x1="0" y1="0" x2="0" y2="1">
      <stop offset="0" stop-color="#082f49"/>
      <stop offset="1" stop-color="#0369a1"/>
    </linearGradient>
    <linearGradient id="wave" x1="0" y1="0" x2="1" y2="0">
      <stop offset="0" stop-color="#67e8f9"/>
      <stop offset="1" stop-color="#22d3ee"/>
    </linearGradient>
  </defs>
  <rect width="800" height="500" fill="url(#bg)"/>
  <path d="M0 300 C120 250, 220 360, 360 310 C500 260, 620 350, 800 300 L800 500 L0 500 Z" fill="url(#wave)" opacity="0.85"/>
  <path d="M0 340 C110 300, 250 390, 390 350 C530 310, 660 380, 800 340 L800 500 L0 500 Z" fill="#0891b2" opacity="0.9"/>
  <path d="M0 380 C140 340, 260 430, 420 390 C560 355, 690 420, 800 390 L800 500 L0 500 Z" fill="#0e7490" opacity="0.95"/>
  <path d="M410 120 C360 190, 365 250, 410 300 C455 250, 460 190, 410 120 Z" fill="#a5f3fc"/>
  <circle cx="410" cy="230" r="22" fill="#06b6d4"/>
  <text x="36" y="470" fill="#ecfeff" font-family="Arial, sans-serif" font-size="44" font-weight="700">CONAGUA</text>
</svg>
